<?xml version="1.0" encoding="UTF-8"?>
<svg xmlns="http://www.w3.org/2000/svg" viewBox="0 0 50 50">
  <defs>
    <style>
      .cls-1 {
        fill: #838383;
      }

      .cls-2 {
        mix-blend-mode: color-dodge;
      }

      .cls-3 {
        isolation: isolate;
      }
    </style>
  </defs>
  <g class="cls-3">
    <g id="Layer_1">
      <g class="cls-2">
        <polygon class="cls-1" points="3.79 1.32 36.14 1.32 36.14 6.71 36.6 6.71 37.06 6.71 37.06 .41 2.88 .41 2.88 42.38 12.03 42.38 12.03 41.92 12.03 41.47 3.79 41.47 3.79 1.32"/>
        <rect class="cls-1" x="5.42" y="16.68" width="6.62" height="1.39"/>
        <rect class="cls-1" x="5.42" y="12.65" width="6.62" height="1.39"/>
        <rect class="cls-1" x="5.42" y="8.62" width="6.62" height="1.39"/>
        <rect class="cls-1" x="5.42" y="4.59" width="24.62" height="1.39"/>
        <rect class="cls-1" x="5.42" y="20.7" width="6.62" height="1.39"/>
        <rect class="cls-1" x="5.42" y="24.72" width="6.62" height="1.39"/>
        <rect class="cls-1" x="5.42" y="28.73" width="6.62" height="1.39"/>
        <rect class="cls-1" x="5.42" y="32.75" width="6.62" height="1.39"/>
        <rect class="cls-1" x="5.42" y="36.77" width="6.62" height="1.39"/>
        <path class="cls-1" d="M43.57,48.68H13.85V8.53h22.92v3.27h-20.04v1.39h20.04v2.64H15.48v1.39h21.29v.29c0,.19.12.35.28.42.05.02.11.04.17.04h8.98v26.73l.45.42.46.42v-28.21l-.13-.13-9.44-9.44-.13-.13H12.94v41.97h31.62l-.49-.46-.49-.46ZM37.69,15.83v-6.65l7.88,7.88h-7.88v-1.23Z"/>
        <polygon class="cls-1" points="43.76 19.86 37.06 19.86 36.6 19.86 36.14 19.86 15.48 19.86 15.48 20.7 15.48 21.25 32.03 21.25 36.14 21.25 36.6 21.25 37.06 21.25 43.76 21.25 43.76 19.86"/>
        <polygon class="cls-1" points="43.76 23.44 37.06 23.44 36.6 23.44 36.14 23.44 15.48 23.44 15.48 24.29 15.48 24.84 32.03 24.84 36.14 24.84 36.6 24.84 37.06 24.84 43.76 24.84 43.76 23.44"/>
        <polygon class="cls-1" points="43.76 27.21 37.06 27.21 36.6 27.21 36.14 27.21 15.48 27.21 15.48 28.05 15.48 28.6 32.03 28.6 36.14 28.6 36.6 28.6 37.06 28.6 43.76 28.6 43.76 27.21"/>
        <polygon class="cls-1" points="43.76 30.98 37.06 30.98 36.6 30.98 36.14 30.98 15.48 30.98 15.48 31.82 15.48 32.37 32.03 32.37 36.14 32.37 36.6 32.37 37.06 32.37 43.76 32.37 43.76 30.98"/>
        <polygon class="cls-1" points="43.76 34.75 37.06 34.75 36.6 34.75 36.14 34.75 15.48 34.75 15.48 35.59 15.48 36.14 32.03 36.14 36.14 36.14 36.6 36.14 37.06 36.14 43.76 36.14 43.76 34.75"/>
        <polygon class="cls-1" points="43.76 38.51 37.06 38.51 36.6 38.51 36.14 38.51 15.48 38.51 15.48 39.35 15.48 39.91 32.03 39.91 36.14 39.91 36.6 39.91 37.06 39.91 43.76 39.91 43.76 38.51"/>
        <polygon class="cls-1" points="43.76 42.28 37.06 42.28 36.6 42.28 36.14 42.28 15.48 42.28 15.48 43.12 15.48 43.67 32.03 43.67 36.14 43.67 36.6 43.67 37.06 43.67 43.76 43.67 43.76 42.28"/>
      </g>
    </g>
  </g>
</svg>