<?xml version="1.0" encoding="UTF-8"?>
<svg id="Layer_1" xmlns="http://www.w3.org/2000/svg" viewBox="0 0 50 50">
  <defs>
    <style>
      .cls-1 {
        fill: #838383;
      }
    </style>
  </defs>
  <g>
    <path class="cls-1" d="M43.88,40.89h-.02s-.05,0-.07,0c-.51,0-.98.18-1.37.48-.66.51-1.1,1.38-1.1,2.36,0,1.57,1.11,2.84,2.47,2.84.02,0,.05,0,.07,0h.02c.95-.04,1.75-.68,2.14-1.6.16-.37.25-.79.25-1.24,0-1.53-1.05-2.78-2.39-2.83ZM45.72,44.67c-.31.84-1.02,1.43-1.86,1.46-.03,0-.05,0-.08,0-1.16,0-2.11-1.08-2.11-2.42,0-.88.41-1.65,1.02-2.07.32-.22.69-.35,1.08-.35.03,0,.05,0,.08,0,1.13.05,2.03,1.11,2.03,2.41,0,.34-.06.66-.17.95Z"/>
    <g>
      <path class="cls-1" d="M43.87,6.1h-5.89v43.5h11.63V6.1h-5.74ZM46.45,45.14c-.47,1.12-1.45,1.84-2.56,1.89h-.11c-1.63,0-2.95-1.48-2.95-3.31,0-1.09.48-2.12,1.29-2.74.49-.38,1.07-.58,1.66-.58h.11c1.59.07,2.84,1.52,2.84,3.32,0,.49-.1.97-.29,1.42ZM48.4,32.04v5.95h-9.21V8.01h9.21v24.03Z"/>
      <rect class="cls-1" x="40.96" y="10.48" width="5.82" height="2.31"/>
    </g>
  </g>
  <g>
    <path class="cls-1" d="M31.43,40.89h-.02s-.05,0-.07,0c-.51,0-.98.18-1.37.48-.66.51-1.1,1.38-1.1,2.36,0,1.57,1.11,2.84,2.47,2.84.02,0,.05,0,.07,0h.02c.95-.04,1.75-.68,2.14-1.6.16-.37.25-.79.25-1.24,0-1.53-1.05-2.78-2.39-2.83ZM33.28,44.67c-.31.84-1.02,1.43-1.86,1.46-.03,0-.05,0-.08,0-1.16,0-2.11-1.08-2.11-2.42,0-.88.41-1.65,1.02-2.07.32-.22.69-.35,1.08-.35.03,0,.05,0,.08,0,1.13.05,2.03,1.11,2.03,2.41,0,.34-.06.66-.17.95Z"/>
    <g>
      <path class="cls-1" d="M31.42,6.1h-5.89v43.5h11.63V6.1h-5.74ZM34.01,45.14c-.47,1.12-1.45,1.84-2.56,1.89h-.11c-1.63,0-2.95-1.48-2.95-3.31,0-1.09.48-2.12,1.29-2.74.49-.38,1.07-.58,1.66-.58h.11c1.59.07,2.84,1.52,2.84,3.32,0,.49-.1.97-.29,1.42ZM35.95,32.04v5.95h-9.21V8.01h9.21v24.03Z"/>
      <rect class="cls-1" x="28.51" y="10.48" width="5.82" height="2.31"/>
    </g>
  </g>
  <g>
    <path class="cls-1" d="M18.75,35.18h-.02s-.05,0-.07,0c-.51,0-.98.18-1.37.48-.66.51-1.1,1.38-1.1,2.36,0,1.57,1.11,2.84,2.47,2.84.02,0,.05,0,.07,0h.02c.95-.04,1.75-.68,2.14-1.6.16-.37.25-.79.25-1.24,0-1.53-1.05-2.78-2.39-2.83ZM20.59,38.96c-.31.84-1.02,1.43-1.86,1.46-.03,0-.05,0-.08,0-1.16,0-2.11-1.08-2.11-2.42,0-.88.41-1.65,1.02-2.07.32-.22.69-.35,1.08-.35.03,0,.05,0,.08,0,1.13.05,2.03,1.11,2.03,2.41,0,.34-.06.66-.17.95Z"/>
    <g>
      <path class="cls-1" d="M18.73.4h-5.89v43.5h11.63V.4h-5.74ZM21.32,39.44c-.47,1.12-1.45,1.84-2.56,1.89h-.11c-1.63,0-2.95-1.48-2.95-3.31,0-1.09.48-2.12,1.29-2.74.49-.38,1.07-.58,1.66-.58h.11c1.59.07,2.84,1.52,2.84,3.32,0,.49-.1.97-.29,1.42ZM23.27,26.34v5.95h-9.21V2.3h9.21v24.03Z"/>
      <rect class="cls-1" x="15.83" y="4.77" width="5.82" height="2.31"/>
    </g>
  </g>
  <g>
    <path class="cls-1" d="M6.3,40.89h-.02s-.05,0-.07,0c-.51,0-.98.18-1.37.48-.66.51-1.1,1.38-1.1,2.36,0,1.57,1.11,2.84,2.47,2.84.02,0,.05,0,.07,0h.02c.95-.04,1.75-.68,2.14-1.6.16-.37.25-.79.25-1.24,0-1.53-1.05-2.78-2.39-2.83ZM8.15,44.67c-.31.84-1.02,1.43-1.86,1.46-.03,0-.05,0-.08,0-1.16,0-2.11-1.08-2.11-2.42,0-.88.41-1.65,1.02-2.07.32-.22.69-.35,1.08-.35.03,0,.05,0,.08,0,1.13.05,2.03,1.11,2.03,2.41,0,.34-.06.66-.17.95Z"/>
    <g>
      <path class="cls-1" d="M6.29,6.1H.4v43.5h11.63V6.1h-5.74ZM8.88,45.14c-.47,1.12-1.45,1.84-2.56,1.89h-.11c-1.63,0-2.95-1.48-2.95-3.31,0-1.09.48-2.12,1.29-2.74.49-.38,1.07-.58,1.66-.58h.11c1.59.07,2.84,1.52,2.84,3.32,0,.49-.1.97-.29,1.42ZM10.82,32.04v5.95H1.6V8.01h9.21v24.03Z"/>
      <rect class="cls-1" x="3.38" y="10.48" width="5.82" height="2.31"/>
    </g>
  </g>
</svg>