<?xml version="1.0" encoding="UTF-8"?>
<svg id="Layer_1" xmlns="http://www.w3.org/2000/svg" viewBox="0 0 50 50">
  <defs>
    <style>
      .cls-1 {
        fill: #838383;
      }

      .cls-2 {
        fill: #30af4a;
      }

      .cls-3 {
        fill: #60bb46;
      }
    </style>
  </defs>
  <path class="cls-1" d="M18.98,12.56h-5.14v4.83h5.14v-4.83ZM18.45,16.88h-4.08v-3.82h4.08v3.82Z"/>
  <path class="cls-1" d="M18.98,35.76h-5.14v4.83h5.14v-4.83ZM18.45,40.08h-4.08v-3.82h4.08v3.82Z"/>
  <rect class="cls-2" x="14.37" y="28.53" width="1.71" height="0"/>
  <rect class="cls-3" x="15.26" y="24.21" width="2.41" height="0"/>
  <polygon class="cls-1" points="20.77 38.56 24.79 38.56 36.08 38.56 36.08 37.78 24.79 37.78 20.77 37.78 20.77 38.56"/>
  <path class="cls-1" d="M39.8,4.19h-8.78v-.22c0-.22-.18-.4-.4-.4h0c-.04-.79-.73-1.43-1.59-1.43h-2.18s0-.04,0-.07c0-.09-.01-.18-.03-.27-.01-.05-.03-.1-.05-.15-.02-.05-.03-.11-.05-.16-.03-.06-.06-.12-.09-.18-.02-.03-.04-.07-.06-.1-.04-.07-.1-.12-.15-.18-.02-.02-.03-.04-.05-.06-.06-.06-.13-.12-.21-.18-.01,0-.02-.02-.03-.03-.08-.06-.17-.11-.26-.15,0,0,0,0-.01,0-.1-.05-.2-.09-.3-.12,0,0,0,0,0,0-.11-.03-.22-.05-.33-.06,0,0,0,0,0,0-.06,0-.12-.01-.18-.02-.01,0-.02,0-.03,0,0,0,0,0,0,0s0,0,0,0c-.01,0-.02,0-.03,0-.06,0-.12.01-.18.02,0,0,0,0,0,0-.11.01-.22.03-.33.06,0,0,0,0,0,0-.11.03-.21.07-.3.12,0,0,0,0-.01,0-.09.05-.18.1-.26.15-.01,0-.02.02-.03.03-.07.06-.14.11-.21.18-.02.02-.03.04-.05.06-.05.06-.1.12-.15.18-.02.03-.04.07-.06.1-.03.06-.07.11-.09.18-.02.05-.04.11-.05.16-.02.05-.04.1-.05.15-.02.09-.02.18-.03.27,0,.02,0,.04,0,.07h-2.18c-.86,0-1.55.64-1.59,1.43h0c-.17,0-.31.1-.37.24-.02.05-.03.1-.03.15v.22h-8.78c-2.34,0-4.24,1.79-4.24,4v37.4c0,2.2,1.9,4,4.24,4h29.59c2.34,0,4.24-1.79,4.24-4V8.19c0-2.2-1.9-4-4.24-4ZM24.09,2.14c0-.11.03-.21.07-.31.01-.03.04-.06.06-.1.03-.06.07-.11.12-.16.03-.03.07-.06.1-.09.05-.04.1-.07.15-.1.04-.02.09-.04.14-.05.09-.03.18-.05.28-.05,0,0,0,0,0,0s0,0,0,0c.1,0,.19.03.28.05.05.01.09.03.14.05.05.03.1.06.15.1.04.03.07.05.1.09.05.05.08.1.12.16.02.03.04.06.06.09.04.1.07.2.07.31,0,0,0,0,0,0s0,0,0,0c0,.11-.03.21-.07.31-.01.03-.04.06-.06.09-.03.06-.07.11-.12.16-.03.03-.07.06-.1.09-.05.04-.1.07-.15.1-.04.02-.09.04-.14.05-.09.03-.18.05-.28.05,0,0,0,0,0,0s0,0,0,0c-.1,0-.19-.03-.28-.05-.05-.01-.09-.03-.14-.05-.05-.03-.1-.06-.15-.1-.04-.03-.07-.05-.1-.09-.05-.05-.08-.1-.12-.16-.02-.03-.04-.06-.06-.1-.04-.1-.07-.2-.07-.31,0,0,0,0,0,0s0,0,0,0ZM19.78,4.99v-.62h10.44v.76h-10.44v-.14ZM23.18,8.11h8.84c.25,0,.48-.06.69-.16,0,0,0,0,0,0,.07-.04.15-.08.21-.13,0,0,.02-.01.03-.02.06-.04.11-.09.17-.14.02-.02.03-.04.05-.05.04-.05.08-.09.12-.14.02-.03.04-.06.05-.09.02-.04.05-.09.07-.13.02-.05.03-.1.05-.15.01-.03.02-.07.03-.1.02-.09.03-.18.03-.27h0s6.56,0,6.56,0v25.19s0,0,0,0v13.97h-12.91,0s-17.25,0-17.25,0v-23.33h0s0-15.82,0-15.82h6.56c0,.1.01.19.03.28,0,.04.02.07.03.1.02.05.03.1.05.15.02.05.05.09.07.13.02.03.03.06.05.09.03.05.08.1.12.14.02.02.03.04.05.05.05.05.11.1.17.14,0,0,.02.02.03.02.07.05.14.09.21.13,0,0,0,0,0,0,.21.1.44.16.69.16h5.2ZM39.8,48.79H10.2c-1.9,0-3.44-1.44-3.44-3.2v-3.21s0,0,0,0V8.19c0-1.77,1.54-3.2,3.44-3.2h8.78v.14h-1c-.29,0-.56.08-.79.22-.23.14-.42.33-.54.56h-7.4v10.87h0s0,5.58,0,5.58l-.08,8.29v15.96h31.58v-17.77h0v-12.06h0s0-10.87,0-10.87h-7.4c-.12-.23-.31-.42-.54-.56s-.5-.22-.79-.22h-1v-.14h8.78c1.9,0,3.44,1.44,3.44,3.2v34.19s0,0,0,0v3.21c0,1.77-1.54,3.2-3.44,3.2Z"/>
  <g>
    <polygon class="cls-1" points="18.9 24.99 18.53 25.62 18.45 25.76 18.45 28.03 18.45 28.54 16.08 28.54 14.37 28.54 14.37 28.53 14.37 25.56 14.29 25.43 13.92 24.78 13.84 24.65 13.84 29.04 13.84 29.04 18.98 29.04 18.98 28.41 18.98 24.85 18.9 24.99"/>
    <polygon class="cls-1" points="15.51 24.63 15.55 24.71 17.38 24.71 17.43 24.63 17.63 24.29 17.67 24.22 15.26 24.22 15.31 24.29 15.51 24.63"/>
    <polygon class="cls-1" points="20.12 21.56 20.12 21.56 19.79 21.39 18.14 24.21 18.09 24.29 17.89 24.63 17.84 24.71 16.46 27.08 15.09 24.71 15.05 24.63 14.85 24.29 14.8 24.21 14.26 23.26 13.67 23.56 14.05 24.21 14.09 24.29 14.29 24.63 14.37 24.77 16.45 28.39 18.45 24.97 18.53 24.83 18.85 24.29 18.9 24.21 19.33 23.47 20.29 21.65 20.12 21.56"/>
  </g>
  <polygon class="cls-1" points="20.77 26.91 24.79 26.91 36.08 26.91 36.08 26.13 24.79 26.13 20.77 26.13 20.77 26.91"/>
  <polygon class="cls-1" points="20.77 15.37 24.79 15.37 36.08 15.37 36.08 14.59 24.79 14.59 20.77 14.59 20.77 15.37"/>
</svg>