<?xml version="1.0" encoding="UTF-8"?>
<svg id="Layer_1" xmlns="http://www.w3.org/2000/svg" viewBox="0 0 50 50">
  <defs>
    <style>
      .cls-1 {
        fill: #58595b;
      }
    </style>
  </defs>
  <path class="cls-1" d="M33,37.26c0,.47-.01.91,0,1.35,0,.09.1.19.19.25.59.41.9.93.84,1.68-.04.54-.03,1.09,0,1.64.04.63-.21,1.08-.7,1.44-.93.69-2.02,1.03-3.12,1.3-2.9.71-5.85.87-8.82.73-2.24-.1-4.47-.34-6.61-1.09-.68-.24-1.33-.6-1.96-.97-.5-.3-.72-.79-.68-1.4.04-.66.05-1.32.05-1.98,0-.13-.05-.31-.13-.37-.79-.47-1.08-1.16-.94-2.05,0-.05-.01-.11-.02-.21-.8-.06-1.6-.1-2.39-.18-1.81-.17-3.59-.46-5.29-1.13-.55-.22-1.07-.54-1.57-.88-.41-.28-.6-.71-.57-1.23.04-.67.06-1.35.04-2.02,0-.16-.11-.38-.25-.48-.6-.43-.91-.96-.83-1.72.06-.54.09-1.09.05-1.64-.05-.73.3-1.2.87-1.56.24-.15.33-.28.31-.6-.04-.86-.02-1.73.06-2.58.03-.31.27-.61.39-.87-.04-.43-.1-.85-.12-1.27-.02-.34,0-.69.03-1.03.05-.59.04-1.1-.58-1.46-.38-.22-.52-.66-.5-1.13.03-.65.08-1.29.04-1.94-.03-.67.27-1.12.78-1.48.14-.1.28-.19.43-.29,0-.78-.01-1.55,0-2.33,0-.26-.04-.42-.28-.56-.7-.41-1.09-.99-.98-1.85.06-.53.08-1.06.05-1.59-.05-.71.27-1.21.85-1.53.64-.35,1.3-.67,1.99-.9,1.64-.55,3.35-.78,5.07-.92,3.15-.25,6.29-.18,9.39.5,1.08.24,2.13.66,3.18,1.05.35.13.69.39.93.68.21.26.36.62.39.96.06.63,0,1.26.04,1.89,0,.17.12.38.26.47.63.43,1,.95.93,1.76-.04.51-.04,1.04,0,1.55.07.74-.25,1.26-.85,1.62-.32.19-.43.38-.4.77.06.73.01,1.46.04,2.2,0,.17.11.39.23.49.52.41.83.88.78,1.58-.04.51-.02,1.04.01,1.55.04.6-.08,1.11-.47,1.41.04.64.09,1.19.11,1.74.02.36-.03.72,0,1.08.07.7-.22,1.22-.79,1.56-.39.23-.55.48-.44.92.03.12.02.25.03.4h2.49c-.16-1.04.24-1.81,1.22-2.24,0-1.03-.03-2.01.02-3,.01-.25.19-.56.4-.73.41-.33.89-.57,1.32-.87.13-.09.25-.26.27-.41.05-.43.06-.86.05-1.29-.02-.51.16-.93.56-1.19.57-.36,1.15-.71,1.77-.95,1.83-.69,3.75-.96,5.69-1.1,3.11-.24,6.21-.16,9.26.51,1,.22,1.98.58,2.94.94.38.14.72.41,1.05.66.37.29.54.68.53,1.17-.01.65-.01,1.29.02,1.94.02.55-.18.99-.61,1.3-.36.26-.74.49-1.14.68-.25.12-.35.25-.33.51.02.33-.02.66.01.99.08.72-.22,1.24-.81,1.59-.35.21-.47.42-.43.84.06.71.01,1.44.04,2.15,0,.17.1.39.23.49.53.41.83.88.78,1.58-.04.54-.04,1.09.01,1.64.06.74-.24,1.3-.86,1.61-.84.43-1.7.84-2.61,1.09-3.05.83-6.17.98-9.32.83-.56-.03-1.11-.06-1.72-.1ZM38.8,22.6c2.02,0,4.03-.1,5.99-.54,1.11-.25,2.2-.63,3.27-1.02.51-.19,1.12-.48,1.13-1.11,0-.64-.61-.9-1.11-1.13-.58-.27-1.19-.53-1.81-.68-4.7-1.18-9.44-1.19-14.17-.2-1.01.21-2.01.6-2.94,1.06-1.14.57-1.12,1.26-.02,1.89.49.28,1.03.51,1.57.69,2.63.84,5.34,1.04,8.08,1.05ZM11.19,4.77c-1.1.08-2.21.12-3.31.23-1.76.19-3.5.47-5.13,1.2-.45.2-.88.49-1.26.81-.34.29-.33.67,0,.98.25.23.53.47.83.6.72.31,1.46.63,2.22.8,4.54,1.07,9.11,1.05,13.67.16,1.17-.23,2.32-.56,3.33-1.24.81-.55.8-1.07,0-1.64-.15-.11-.31-.22-.48-.28-.63-.25-1.25-.52-1.89-.7-2.61-.73-5.28-.9-7.98-.91ZM23.27,29.14c-.2,0-.4,0-.6,0-2.54.04-5.05.25-7.47,1.06-.68.23-1.35.57-1.95.96-.6.4-.6.92,0,1.32.52.36,1.11.66,1.71.88,1.6.59,3.27.85,4.97.99,3.44.3,6.86.22,10.23-.56,1.08-.25,2.15-.56,3.05-1.23.68-.5.7-1.01,0-1.47-.58-.38-1.23-.69-1.89-.91-2.61-.85-5.31-1.04-8.03-1.05ZM32.47,35.97c-1.97.79-3.99,1.13-6.04,1.3-3.35.29-6.68.17-9.98-.56-1.21-.27-2.41-.59-3.4-1.38-.36-.29-.6-.27-.91,0-.11.1-.23.18-.32.28-.3.33-.32.68,0,.99.22.22.48.43.76.56.64.29,1.29.57,1.96.76,2.73.77,5.54.93,8.36.87,2.43-.05,4.85-.27,7.17-1.04.68-.23,1.33-.6,1.96-.95.27-.15.48-.41.43-.84ZM22.22,15.58s-.09-.07-.13-.1c-.47.16-.94.35-1.42.47-4.9,1.25-9.82,1.25-14.75.19-1.17-.25-2.32-.6-3.26-1.37-.28-.23-.48-.24-.73-.02-.13.11-.28.21-.4.33-.35.36-.37.71,0,1.05.25.23.53.47.84.58,1.09.38,2.18.8,3.31,1.04,3,.63,6.04.66,9.09.42,1.78-.14,3.54-.39,5.22-1.01.61-.23,1.19-.55,1.75-.9.22-.14.33-.44.49-.67ZM22.69,23.34c-1.42.79-2.95,1.15-4.51,1.41-3.02.5-6.06.56-9.1.23-2.34-.25-4.67-.6-6.7-1.94-.56.5-.58.88-.01,1.34.24.2.51.4.8.5,1.06.35,2.11.75,3.2.98,2.99.62,6.02.66,9.05.43,1.95-.15,3.88-.44,5.71-1.18.5-.2.96-.5,1.4-.82.29-.21.46-.53.17-.94ZM46.03,27.85s-.09-.09-.14-.13c-.38.13-.75.27-1.13.39-2.06.64-4.18.89-6.32.98-3.13.14-6.23-.03-9.27-.85-.97-.26-1.94-.57-2.72-1.23-.28-.24-.48-.25-.73-.02-.1.08-.21.15-.3.24-.25.22-.46.49-.31.83.15.35.39.64.82.67.3.02.6.05.9.08,1.82.2,3.65.41,5.31,1.18.97.45,1.93.57,2.95.55.33,0,.66,0,.99,0,2.52-.04,5.02-.25,7.43-1.04.69-.23,1.33-.59,1.96-.95.24-.14.37-.45.55-.69ZM21.61,27.87c-1.97.79-3.98,1.12-6.03,1.3-3.34.29-6.66.18-9.94-.55-1.25-.28-2.49-.61-3.51-1.44-.29-.23-.48-.24-.73-.03-.13.11-.28.21-.4.33-.35.36-.35.7,0,1.06.15.15.32.31.51.4.72.31,1.43.67,2.19.88,2.78.79,5.63.92,8.49.88.53,0,1.01-.05,1.46-.38.25-.18.56-.29.85-.4,2.05-.78,4.19-1.06,6.36-1.21.51-.04.73-.25.75-.85ZM22.47,18.68c-.82.76-1.46,1.11-2.72,1.5-2.05.63-4.15.88-6.28.98-2.84.13-5.66,0-8.43-.63-.91-.21-1.8-.52-2.7-.78.15.26.34.54.6.66.76.36,1.53.74,2.33.97,2.72.78,5.51.93,8.32.87,2.43-.05,4.85-.27,7.17-1.04.68-.23,1.36-.55,1.96-.95.65-.43.61-.89,0-1.38-.08-.06-.16-.12-.26-.19ZM12.66,40.27c.2.48.6.76,1.04.92,1.1.39,2.21.82,3.35,1.06,3,.63,6.05.66,9.09.42,1.7-.13,3.4-.37,5.02-.95.69-.25,1.37-.6,1.98-1,.55-.36.51-.8.02-1.25-.1-.1-.22-.17-.27-.21-.55.35-1.03.74-1.57.97-.8.34-1.64.64-2.49.81-5.44,1.08-10.82,1.03-16.17-.76ZM2.7,11.8s-.02.02-.03.04c.3.19.58.41.89.57,1.19.61,2.47.91,3.78,1.13,2.85.49,5.71.55,8.58.32,1.81-.14,3.6-.4,5.31-1.03.6-.22,1.18-.52,1.71-.89.58-.41.55-.84.02-1.31-.12-.1-.25-.18-.38-.28-.56.83-1.39,1.2-2.24,1.51-1.49.55-3.04.83-4.61,1-3.42.37-6.82.32-10.2-.35-.95-.19-1.87-.48-2.81-.73ZM27.82,22.13c-.47.32-.91.56-1.29.88-.39.33-.37.71,0,1.08.17.17.37.34.58.43.79.33,1.58.71,2.41.91,4.47,1.06,8.96,1.06,13.46.21.78-.15,1.54-.4,2.31-.6l-.03-.11c-.06,0-.11,0-.17,0-4.08.78-8.16.79-12.25.07-1.26-.22-2.5-.54-3.64-1.14-.67-.35-1.3-.76-1.4-1.73ZM34.23,34.42c.21.02.41.06.61.05,1.86-.05,3.73-.05,5.59-.19,1.66-.12,3.3-.44,4.85-1.09.5-.21.97-.5,1.4-.83.43-.34.41-.71.01-1.1-.13-.13-.28-.23-.43-.35-.82.89-1.88,1.27-2.96,1.58-2.8.8-5.67.98-8.57.95-.17,0-.33,0-.52,0,0,.23,0,.4,0,.57,0,.13.01.25.02.41ZM12.32,33.62c-3.58,0-7.12-.15-10.53-1.47.17.25.34.51.58.64.56.31,1.14.62,1.75.81,2.64.85,5.37,1.07,8.12,1.05.05,0,.1-.03.13-.04-.02-.34-.04-.65-.06-1Z"/>
</svg>